<svg width="100" height="49" viewBox="0 0 100 49" fill="none" xmlns="http://www.w3.org/2000/svg">
<path d="M75.3625 0C74.1125 0 72.8333 0.0708343 71.5833 0.287501C61.0333 1.81667 53.9583 9.61667 50 15.5958C46.0417 9.61667 38.9667 1.81667 28.4167 0.287501C27.1652 0.103397 25.9024 0.00732711 24.6375 0C11.0333 0 0 10.9333 0 24.3917C0 37.85 11.0667 48.7833 24.6375 48.7833C25.8875 48.7833 27.1667 48.7125 28.4542 48.4958C39 46.9292 46.0792 39.1333 50.0375 33.15C53.9917 39.1333 61.0667 46.9292 71.6208 48.4958C72.8667 48.675 74.15 48.7833 75.4333 48.7833C88.9333 48.7833 100 37.85 100 24.3917C100 10.9333 88.9333 0 75.3625 0ZM27.2083 39.95C26.3466 40.0806 25.4757 40.1405 24.6042 40.1292C15.6542 40.1292 8.4 33.0458 8.4 24.3917C8.4 15.7042 15.6875 8.65417 24.6417 8.65417C25.5083 8.65417 26.375 8.725 27.2417 8.83333C37.2 10.2917 43.2708 20.3667 45.3542 24.3917C43.2375 28.45 37.1292 38.4917 27.2083 39.95ZM75.3667 40.1292C74.5 40.1292 73.6333 40.0583 72.7667 39.95C62.8083 38.4917 56.7 28.4167 54.6542 24.3917C56.7 20.3667 62.8083 10.2917 72.7667 8.83333C73.6333 8.725 74.5 8.65417 75.3667 8.65417C84.3208 8.65417 91.575 15.7375 91.575 24.3917C91.575 33.0792 84.2833 40.1292 75.3667 40.1292ZM82.2417 21.7792V26.5042H77.2208V31.4292H72.4042V26.5042H67.375V21.7792H72.4V16.85H77.2167V21.7792H82.2417ZM17.6917 26.4667H32.5833V21.7792H17.6875L17.6917 26.4667Z" fill="#1B1B19"/>
</svg>
