<svg width="100" height="113" viewBox="0 0 100 113" fill="none" xmlns="http://www.w3.org/2000/svg">
<path d="M95.6699 24.8986L54.3297 1.03125C51.9483 -0.343751 48.051 -0.343751 45.6696 1.03125L4.33007 24.8986C1.94843 26.2736 0 29.6487 0 32.3987V80.1335C0.185282 83.3362 1.82118 85.9886 4.32985 87.6336L45.67 111.501C48.0512 112.876 51.9485 112.876 54.33 111.501L95.6699 87.6336C98.3619 85.8431 99.8943 83.1481 100 80.1335V32.3987C99.9033 29.5052 98.1707 26.5868 95.6702 24.8986M16.6666 56.2663C16.4708 23.7177 60.0662 9.34566 78.8661 39.5891L64.4405 47.9367C55.732 33.5333 34.1093 38.6836 33.3333 56.2663C33.5662 72.4712 54.8186 79.9987 64.4414 64.5946L78.8672 72.9422C62.2989 101.704 17.5018 91.3561 16.6666 56.2663ZM83.3334 58.1178H79.6295V61.8217H75.9263V58.1178H72.2224V54.4144H75.9263V50.7109H79.6297V54.4144H83.3334V58.1178ZM97.2223 58.1178H93.5182V61.8217H89.8147V58.1178H86.1113V54.4144H89.8152V50.7109H93.5184V54.4144H97.2223V58.1178Z" fill="#1B1B19"/>
</svg>
