<svg width="100" height="100" viewBox="0 0 100 100" fill="none" xmlns="http://www.w3.org/2000/svg">
<path d="M38.1144 0L9.23935 18.1976L0 73.5209L32.427 97.1222L46.3121 84.6008L59.2394 94.6032L84.2385 100.001L100 64.3234L81.6751 57.4928V81.6759H18.3249V18.3249H81.6751V49.9718L98.0108 29.9704L85.1425 3.8152L60.8543 12.6034L38.1144 0ZM19.1794 19.1794V80.8206H80.8206V19.1794H19.1794ZM37.2001 26.1151C38.9216 26.0306 40.6416 26.3118 42.2466 26.94C43.8516 27.5683 45.3054 28.5295 46.5121 29.7602L43.2292 33.5848C41.6387 31.9363 39.4643 30.9786 37.1744 30.918C33.196 30.918 30.3319 34.2188 30.3319 38.2707V38.3442C30.3319 42.3969 33.1328 45.7712 37.1744 45.7712C39.8848 45.7712 41.5322 44.7288 43.4283 43.0011L46.6736 46.3548C45.4781 47.7372 43.9845 48.8303 42.3054 49.5519C40.6263 50.2734 38.8053 50.6045 36.9796 50.5204C35.3827 50.5451 33.7972 50.2485 32.3172 49.6481C30.8373 49.0478 29.4932 48.1559 28.3649 47.0256C27.2355 45.8964 26.3447 44.5517 25.7455 43.0713C25.1463 41.5909 24.8509 40.0051 24.877 38.4083V38.3442C24.8479 36.7224 25.1475 35.1115 25.7578 33.6086C26.3682 32.1057 27.2765 30.7419 28.4281 29.5996C29.5793 28.4566 30.95 27.5587 32.4576 26.9598C33.9652 26.3609 35.5784 26.0736 37.2001 26.1151ZM50.053 26.5022H55.2601V45.6576H65.5205V50H50.053V26.5022ZM26.5423 69.4357H49.9803V73.344H26.5423V69.4357Z" fill="#1B1B19"/>
</svg>
