<svg width="100" height="98" viewBox="0 0 100 98" fill="none" xmlns="http://www.w3.org/2000/svg">
<path d="M50 0C43.4339 0 36.9321 1.29329 30.8658 3.80602C24.7995 6.31876 19.2876 10.0017 14.6447 14.6447C5.26784 24.0215 0 36.7392 0 50C0 72.1 14.35 90.85 34.2 97.5C36.7 97.9 37.5 96.35 37.5 95V86.55C23.65 89.55 20.7 79.85 20.7 79.85C18.4 74.05 15.15 72.5 15.15 72.5C10.6 69.4 15.5 69.5 15.5 69.5C20.5 69.85 23.15 74.65 23.15 74.65C27.5 82.25 34.85 80 37.7 78.8C38.15 75.55 39.45 73.35 40.85 72.1C29.75 70.85 18.1 66.55 18.1 47.5C18.1 41.95 20 37.5 23.25 33.95C22.75 32.7 21 27.5 23.75 20.75C23.75 20.75 27.95 19.4 37.5 25.85C41.45 24.75 45.75 24.2 50 24.2C54.25 24.2 58.55 24.75 62.5 25.85C72.05 19.4 76.25 20.75 76.25 20.75C79 27.5 77.25 32.7 76.75 33.95C80 37.5 81.9 41.95 81.9 47.5C81.9 66.6 70.2 70.8 59.05 72.05C60.85 73.6 62.5 76.65 62.5 81.3V95C62.5 96.35 63.3 97.95 65.85 97.5C85.7 90.8 100 72.1 100 50C100 43.4339 98.7067 36.9321 96.194 30.8658C93.6812 24.7995 89.9983 19.2876 85.3553 14.6447C80.7124 10.0017 75.2005 6.31876 69.1342 3.80602C63.0679 1.29329 56.5661 0 50 0Z" fill="#1B1B19"/>
</svg>
