<svg width="100" height="98" viewBox="0 0 100 98" fill="none" xmlns="http://www.w3.org/2000/svg">
<path d="M43.875 43.4583C43.4583 42.1667 43.0833 40.9167 42.6667 39.625C42.25 38.3333 41.875 37.125 41.5417 35.9167C41.2083 34.75 40.9167 33.6667 40.625 32.6667H40.5417C40.1667 34.4583 39.7083 36.25 39.125 38.0417C38.5 40.0417 37.875 42.125 37.2083 44.2083C36.625 46.3333 36 48.2917 35.375 50.0417H45.9583C45.7083 49.1625 45.375 48.125 45 47.0375C44.625 45.9167 44.25 44.7083 43.875 43.4583ZM82.2917 0H17.7083C7.91667 0 0 7.91667 0 17.7083V79.7917C0 89.5833 7.91667 97.5 17.7083 97.5H82.2917C92.0833 97.5 100 89.5833 100 79.7917V17.7083C100 7.91667 92.0833 0 82.2917 0ZM61.25 68.875H52.5375C52.25 68.9167 51.9583 68.7083 51.875 68.4167L48.4583 58.5H32.9583L29.7917 68.2917C29.7083 68.6667 29.375 68.9167 29 68.8792H21.1667C20.7083 68.8792 20.5833 68.625 20.7083 68.1292L34.125 29.5C34.25 29.0833 34.375 28.625 34.5417 28.125C34.7083 27.25 34.7917 26.3333 34.7917 25.4167C34.75 25.2083 34.9167 25 35.125 24.9583H45.9167C46.25 24.9583 46.4167 25.0833 46.4583 25.2917L61.6667 68.2083C61.7917 68.6625 61.6667 68.875 61.25 68.875ZM75.4167 68.25C75.4167 68.7083 75.2542 68.9167 74.8792 68.9167H66.7083C66.2917 68.9167 66.0833 68.6625 66.0833 68.25V36.1667C66.0833 35.75 66.2542 35.5833 66.6292 35.5833H74.8792C75.2542 35.5833 75.4167 35.7917 75.4167 36.1667V68.25ZM74.5458 30.625C74.0537 31.1248 73.4604 31.5134 72.8057 31.765C72.151 32.0165 71.4501 32.125 70.75 32.0833C69.375 32.125 68.0417 31.5833 67.0375 30.625C66.0829 29.5812 65.5744 28.2054 65.6208 26.7917C65.5792 25.375 66.1208 24.0417 67.1167 23.0833C68.125 22.125 69.4583 21.625 70.8333 21.625C72.4625 21.625 73.7042 22.125 74.625 23.0833C75.5417 24.0833 76.0417 25.4167 76 26.7917C76.0417 28.2083 75.5417 29.5833 74.5458 30.625Z" fill="#1B1B19"/>
</svg>
