<svg width="100" height="98" viewBox="0 0 100 98" fill="none" xmlns="http://www.w3.org/2000/svg">
<path d="M17.7078 0C7.91641 0 0 7.91719 0 17.7094V79.7906C0 89.5828 7.91641 97.5 17.7078 97.5H82.2922C92.0836 97.5 100 89.5828 100 79.7906V17.7094C100 7.91719 92.0836 0 82.2922 0H17.7078ZM35.8336 24.7922C39.25 24.7922 42.0836 25.2078 44.4164 26.0828C46.5082 26.7936 48.4156 27.9612 50 29.5008C51.3428 30.8474 52.3804 32.4671 53.0422 34.25C53.6672 36 53.9992 37.7914 53.9992 39.6664C53.9992 43.25 53.1664 46.2078 51.4992 48.5414C49.8336 50.8742 47.5008 52.625 44.7922 53.625C41.9586 54.6672 38.8336 55.0414 35.4172 55.0414C34.4172 55.0414 33.7492 55.0414 33.3328 55C32.9164 54.9586 32.3328 54.9586 31.5414 54.9586V68.3336C31.5828 68.625 31.375 68.8758 31.0836 68.9172H23C22.6672 68.9172 22.5016 68.7492 22.5016 68.3742V25.5C22.5016 25.2086 22.6266 25.0406 22.918 25.0406C23.6266 25.0406 24.293 25.0406 25.2508 25C26.2508 24.9578 27.2922 24.9594 28.4172 24.9172C29.5422 24.8758 30.7508 24.875 32.0422 24.8336C33.3344 24.7914 34.5836 24.7922 35.8336 24.7922ZM36.7633 32.9984C36.5505 32.9943 36.3377 32.9948 36.125 33C35.0422 33 34.0836 33.0008 33.2914 33.043C32.4586 33.0008 31.8758 33.0422 31.5844 33.0836V47.0836C32.1672 47.1258 32.7078 47.1664 33.2078 47.1664H35.4172C37.0422 47.1664 38.6672 46.9164 40.2086 46.4164C41.5422 46.0414 42.7086 45.2492 43.625 44.2078C44.5 43.1656 44.9172 41.75 44.9172 39.9164C44.9566 38.6146 44.6243 37.3285 43.9594 36.2086C43.2508 35.1258 42.25 34.2914 41.0414 33.8336C39.6922 33.2867 38.2477 33.0273 36.7633 32.9984ZM71.7086 35.1258C73.4172 35.1258 75.1672 35.2492 76.875 35.4992C78.125 35.6656 79.3328 36.0008 80.4578 36.4594C80.625 36.5008 80.7914 36.6664 80.8742 36.8328C80.9164 36.9992 80.9586 37.1664 80.9586 37.3328V44.125C80.9593 44.2059 80.9409 44.2858 80.9048 44.3582C80.8686 44.4306 80.8159 44.4934 80.7508 44.5414C80.3758 44.625 80.1672 44.625 80.0008 44.5414C78.7508 43.875 77.4164 43.4172 75.9992 43.1258C74.4578 42.7922 72.9164 42.5828 71.3336 42.5828C70.5 42.5406 69.6242 42.6672 68.8328 42.875C68.2906 43 67.8328 43.2922 67.5414 43.7086C67.3336 44.0422 67.2086 44.4586 67.2086 44.8336C67.2086 45.2086 67.3758 45.5836 67.6258 45.9164C68.0008 46.375 68.5 46.7508 69.0414 47.043C70.0076 47.5425 70.9947 48.0005 72 48.4156C74.25 49.1656 76.4164 50.2086 78.4164 51.4586C79.7914 52.3336 80.9164 53.5008 81.7078 54.9172C82.3779 56.2462 82.7075 57.7208 82.6672 59.2086C82.7004 61.1781 82.133 63.1109 81.0406 64.75C79.8787 66.413 78.2575 67.7015 76.375 68.4578C74.3328 69.3328 71.8328 69.7914 68.8328 69.7914C66.9156 69.7914 65.0422 69.625 63.1672 69.25C61.6976 68.996 60.2684 68.5476 58.9172 67.9164C58.6258 67.75 58.4164 67.4578 58.4578 67.1242V59.875C58.4578 59.75 58.4992 59.5828 58.6242 59.5C58.7492 59.4164 58.8742 59.4594 58.9992 59.5422C60.6044 60.4887 62.3479 61.1777 64.1664 61.5844C65.75 62.0008 67.4172 62.2086 69.0844 62.2086C70.6672 62.2086 71.7922 62 72.5422 61.625C73.2086 61.3336 73.6664 60.625 73.6664 59.875C73.6664 59.2922 73.3336 58.7492 72.6664 58.207C72 57.6656 70.625 57.0414 68.5836 56.25C66.489 55.512 64.4997 54.5034 62.6664 53.25C61.3609 52.3195 60.2792 51.1097 59.5 49.7086C58.8351 48.3926 58.506 46.9326 58.5422 45.4586C58.5422 43.6672 59.0414 41.9586 59.9578 40.4172C60.9992 38.7508 62.5422 37.4172 64.3344 36.5844C66.2922 35.5844 68.7492 35.1258 71.7086 35.1258Z" fill="#1B1B19"/>
</svg>
