<svg width="16" height="14" viewBox="0 0 16 14" fill="none" xmlns="http://www.w3.org/2000/svg">
<path d="M7.198 2.06086C6.8194 2.06046 6.44443 2.13464 6.0945 2.27916C5.74456 2.42368 5.42652 2.63571 5.15853 2.90315C4.89054 3.17058 4.67785 3.48818 4.5326 3.83781C4.38735 4.18744 4.31239 4.56226 4.312 4.94086V11.3479C4.31147 11.9191 4.08419 12.4667 3.68011 12.8704C3.27603 13.2741 2.7282 13.5009 2.157 13.5009C1.874 13.5011 1.59372 13.4456 1.33216 13.3376C1.07061 13.2295 0.832895 13.071 0.632599 12.8711C0.432303 12.6712 0.273346 12.4337 0.164805 12.1724C0.0562632 11.911 0.000262522 11.6309 0 11.3479C0 11.1406 0.0823364 10.9418 0.228896 10.7953C0.375456 10.6487 0.574233 10.5664 0.7815 10.5664C0.988767 10.5664 1.18754 10.6487 1.3341 10.7953C1.48066 10.9418 1.563 11.1406 1.563 11.3479C1.563 11.5053 1.62553 11.6562 1.73683 11.7675C1.84813 11.8788 1.99909 11.9414 2.1565 11.9414C2.31391 11.9414 2.46486 11.8788 2.57617 11.7675C2.68747 11.6562 2.75 11.5053 2.75 11.3479V4.94186C2.75039 4.35818 2.86576 3.78029 3.08952 3.24121C3.31328 2.70212 3.64104 2.2124 4.05409 1.8C4.46714 1.3876 4.95738 1.06061 5.49682 0.8377C6.03626 0.614791 6.61432 0.500331 7.198 0.500856C8.16149 0.500387 9.09909 0.812706 9.86983 1.39086C10.6406 1.96901 11.2028 2.78174 11.472 3.70686C12.685 3.74451 13.8358 4.2526 14.6809 5.12362C15.526 5.99464 15.999 7.16026 16 8.37386C16.0001 8.412 15.9974 8.4501 15.992 8.48786C15.9975 8.52594 16.0002 8.56438 16 8.60286V12.7209C16 13.1509 15.65 13.5009 15.219 13.5009H7.198C7.09548 13.501 6.99395 13.4809 6.8992 13.4418C6.80445 13.4026 6.71835 13.3452 6.64581 13.2728C6.57327 13.2003 6.51573 13.1143 6.47647 13.0196C6.43721 12.9249 6.417 12.8234 6.417 12.7209V8.60286C6.417 8.17186 6.767 7.82286 7.197 7.82286C7.57569 7.82325 7.95074 7.74904 8.30074 7.60445C8.65073 7.45987 8.96882 7.24775 9.23682 6.98021C9.50482 6.71267 9.71749 6.39496 9.86268 6.04521C10.0079 5.69547 10.0827 5.32054 10.083 4.94186C10.0827 4.56326 10.0079 4.18841 9.86278 3.83873C9.71765 3.48905 9.50507 3.17138 9.23717 2.90385C8.96928 2.63633 8.65131 2.42419 8.30143 2.27955C7.95155 2.1349 7.5766 2.06059 7.198 2.06086ZM14.446 8.48786C14.4406 8.4501 14.4379 8.412 14.438 8.37386C14.4375 7.60197 14.1502 6.85779 13.6319 6.28584C13.1135 5.7139 12.4011 5.355 11.633 5.27886C11.5572 6.26125 11.1571 7.19061 10.4957 7.92096C9.83434 8.6513 8.94908 9.14126 7.979 9.31386V11.9409H10.427V10.2039C10.427 9.99659 10.5093 9.79781 10.6559 9.65125C10.8025 9.50469 11.0012 9.42236 11.2085 9.42236C11.4158 9.42236 11.6145 9.50469 11.7611 9.65125C11.9077 9.79781 11.99 9.99659 11.99 10.2039V11.9409H14.438V8.60286C14.438 8.56286 14.44 8.52586 14.446 8.48786Z" fill="#1B1B19"/>
</svg>
