<svg width="100" height="100" viewBox="0 0 100 100" fill="none" xmlns="http://www.w3.org/2000/svg">
<path d="M17.0629 0L0 19.3024L0.00683565 19.3058L0 19.3041L9.53329 76.5534L18.3249 76.4816V17.2833H81.6751V80.6335H27.6574L28.9485 88.2502L62.6572 99.9991L100 77.6463L87.905 54.9696L100 42.9575L86.989 10.6279L61.7395 5.93769L53.7075 13.0759L51.8662 7.49966L17.0637 0H17.0629ZM19.1794 18.1378V79.779H80.8206V18.1378H19.1794ZM56.1445 25.1769C59.3143 25.1214 62.4031 26.1798 64.8729 28.1675L62.1864 32.063C60.4294 30.6902 58.2967 29.8835 56.071 29.75C54.092 29.75 53.0504 30.6574 53.0504 31.8323V31.9058C53.0504 33.4481 54.0929 33.9881 58.1243 35.0332C62.8973 36.2815 65.5838 37.9905 65.5838 42.0825V42.156C65.5838 46.8222 62.0189 49.4489 56.9494 49.4489C53.2766 49.4636 49.7272 48.1245 46.9795 45.6875V45.5935L50.0299 41.939C51.9485 43.7085 54.4436 44.7225 57.0528 44.7929C59.1351 44.7929 60.4476 43.9487 60.4476 42.573V42.5097C60.4476 41.1981 59.6358 40.5205 55.7078 39.5225C50.9681 38.3143 47.9168 36.9993 47.9168 32.333V32.2596C47.9168 28.0009 51.3432 25.1769 56.1445 25.1769ZM26.5628 25.5204H36.1448C41.7288 25.5204 45.1133 28.8357 45.1133 33.6147V33.678C45.1133 39.0953 40.8948 41.9065 35.6475 41.9065H31.7725V48.9285H26.562L26.5628 25.5204ZM31.7725 30.167V37.3231H35.7911C38.3647 37.3231 39.8763 35.7911 39.8763 33.7814V33.7181C39.8763 31.4085 38.2707 30.167 35.7073 30.167H31.7725ZM26.5423 68.3941H49.9803V72.3024H26.5423V68.3941Z" fill="#1B1B19"/>
</svg>
