<svg width="24" height="22" viewBox="0 0 24 22" fill="none" xmlns="http://www.w3.org/2000/svg">
<path d="M14.23 10.6902C14.23 11.2831 13.9946 11.8516 13.5754 12.2709C13.1563 12.6902 12.5879 12.9259 11.995 12.9262C11.402 12.9262 10.8332 12.6906 10.4139 12.2713C9.99458 11.852 9.759 11.2832 9.759 10.6902C9.759 10.0974 9.99444 9.52877 10.4136 9.10947C10.8327 8.69016 11.4011 8.45447 11.994 8.4542C12.587 8.4542 13.1558 8.68978 13.5751 9.10911C13.9944 9.52845 14.23 10.0972 14.23 10.6902ZM16.878 0.000204499C15.532 0.000204499 13.771 0.960205 11.99 2.6222C10.21 0.969205 8.448 0.0202045 7.103 0.0202045C6.693 0.0202045 6.32 0.113204 5.997 0.298204C4.622 1.0912 4.314 3.5622 5.024 6.6632C1.98 7.6032 0 9.1062 0 10.6902C0 12.2802 1.99 13.7872 5.043 14.7202C4.339 17.8332 4.653 20.3082 6.031 21.1002C6.351 21.2872 6.721 21.3752 7.133 21.3752C8.478 21.3752 10.24 20.4152 12.021 18.7512C13.801 20.4052 15.563 21.3542 16.908 21.3542C17.318 21.3542 17.691 21.2642 18.014 21.0792C19.388 20.2872 19.697 17.8162 18.987 14.7142C22.02 13.7822 24 12.2762 24 10.6902C24 9.1002 22.01 7.5932 18.957 6.6582C19.661 3.5482 19.347 1.0712 17.969 0.278205C17.6359 0.0908641 17.2601 -0.00504523 16.878 0.000204499ZM16.873 1.0902V1.0962C17.098 1.0962 17.279 1.1402 17.431 1.2232C18.097 1.6052 18.386 3.0582 18.161 4.9272C18.107 5.3872 18.019 5.8722 17.911 6.3672C16.8885 6.11979 15.8505 5.94139 14.804 5.8332C14.1808 4.97321 13.501 4.15573 12.769 3.3862C14.361 1.9062 15.856 1.0942 16.874 1.0912L16.873 1.0902ZM7.103 1.1102C8.115 1.1102 9.617 1.9182 11.213 3.3902C10.527 4.1102 9.843 4.9272 9.193 5.8322C8.14411 5.93912 7.10393 6.11889 6.08 6.3702C5.97264 5.90121 5.88788 5.42733 5.826 4.9502C5.596 3.0822 5.88 1.6302 6.54 1.2432C6.73 1.1532 6.94 1.1152 7.103 1.1102ZM11.985 4.1602C12.44 4.6282 12.895 5.1522 13.345 5.7242C12.905 5.7042 12.455 5.6902 12 5.6902C11.54 5.6902 11.085 5.7002 10.64 5.7242C11.08 5.1522 11.535 4.6292 11.985 4.1602ZM12 6.7862C12.74 6.7862 13.477 6.8202 14.202 6.8792C14.608 7.4612 15.004 8.08221 15.385 8.73921C15.757 9.37921 16.095 10.0292 16.403 10.6852C16.095 11.3402 15.757 11.9952 15.39 12.6352C15.01 13.2952 14.617 13.9232 14.21 14.5052C12.7422 14.6336 11.2661 14.6353 9.798 14.5102C9.37817 13.9068 8.9835 13.2863 8.615 12.6502C8.243 12.0102 7.905 11.3602 7.597 10.7042C7.90601 10.0384 8.244 9.38646 8.61 8.75021C8.99 8.09021 9.383 7.4642 9.79 6.8822C10.5249 6.81726 11.2623 6.78456 12 6.7842V6.7862ZM8.365 7.0402C8.125 7.4172 7.885 7.8032 7.661 8.2002C7.436 8.5902 7.226 8.9822 7.026 9.3742C6.761 8.7182 6.536 8.0642 6.35 7.4272C6.99 7.2772 7.665 7.1432 8.365 7.0402ZM15.625 7.0402C16.32 7.1432 16.99 7.2702 17.631 7.4272C17.451 8.0592 17.226 8.7092 16.971 9.3602C16.5629 8.56421 16.114 7.78984 15.626 7.0402H15.625ZM18.688 7.7152C19.172 7.8652 19.632 8.03221 20.063 8.21321C21.795 8.95321 22.915 9.92121 22.915 10.6892C22.91 11.4572 21.79 12.4292 20.058 13.1642C19.638 13.3442 19.178 13.5062 18.703 13.6572C18.4026 12.6406 18.0352 11.6451 17.603 10.6772C18.053 9.66021 18.413 8.6672 18.688 7.7132V7.7152ZM5.293 7.7192C5.571 8.6792 5.938 9.6762 6.393 10.6992C5.96396 11.6613 5.60112 12.6516 5.307 13.6632C4.823 13.5132 4.363 13.3452 3.937 13.1632C2.205 12.4262 1.085 11.4572 1.085 10.6892C1.085 9.92121 2.205 8.94721 3.937 8.21321C4.357 8.03321 4.817 7.8712 5.293 7.7192ZM16.971 11.9992C17.236 12.6562 17.461 13.3112 17.647 13.9472C17.007 14.1042 16.331 14.2372 15.631 14.3372C16.1184 13.5818 16.565 12.8014 16.971 11.9992ZM7.026 12.0192C7.226 12.4112 7.436 12.8022 7.666 13.1942C7.896 13.5842 8.131 13.9662 8.371 14.3372C7.69672 14.2397 7.02733 14.1109 6.365 13.9512C6.545 13.3212 6.771 12.6692 7.025 12.0182L7.026 12.0192ZM17.92 15.0062C18.032 15.4992 18.12 15.9742 18.174 16.4292C18.404 18.2972 18.12 19.7492 17.46 20.1372C17.313 20.2272 17.122 20.2652 16.897 20.2652C15.885 20.2652 14.383 19.4582 12.787 17.9852C13.473 17.2652 14.157 16.4492 14.807 15.5452C15.914 15.4272 16.961 15.2462 17.92 15.0062ZM6.09 15.0162C7.05 15.2502 8.096 15.4312 9.197 15.5482C9.857 16.4532 10.542 17.2752 11.232 17.9942C9.637 19.4772 8.14 20.2892 7.122 20.2892C6.92969 20.2907 6.73989 20.2454 6.569 20.1572C5.903 19.7772 5.614 18.3232 5.839 16.4542C5.893 15.9942 5.982 15.5102 6.09 15.0162ZM10.65 15.6562C11.09 15.6762 11.54 15.6902 11.995 15.6902C12.455 15.6902 12.91 15.6802 13.355 15.6562C12.915 16.2282 12.46 16.7512 12.01 17.2212C11.555 16.7512 11.1 16.2282 10.65 15.6562Z" fill="#1B1B19"/>
</svg>
