<svg width="100" height="75" viewBox="0 0 100 75" fill="none" xmlns="http://www.w3.org/2000/svg">
<path d="M86.1078 43.1112C82.6193 43.1292 79.5871 43.9694 77.0484 45.2115C76.1166 43.3666 75.1851 41.723 75.021 40.5173C74.838 39.1111 74.6191 38.2525 74.838 36.572C75.0574 34.8916 76.0437 32.4987 76.0253 32.3161C76.0073 32.1336 75.8059 31.275 73.7969 31.257C71.7878 31.2386 70.0526 31.6405 69.8516 32.17C69.6507 32.6996 69.2672 33.9053 69.0114 35.147C68.6643 36.9739 64.9933 43.4943 62.8929 46.91C62.2169 45.577 61.6324 44.4077 61.5043 43.4763C61.3218 42.07 61.1024 41.2114 61.3218 39.531C61.5412 37.8506 62.5275 35.458 62.5091 35.2751C62.4907 35.0926 62.2897 34.2339 60.2806 34.2159C58.2712 34.1975 56.5359 34.5994 56.3354 35.129C56.1344 35.659 55.9151 36.9007 55.4952 38.1064C55.0749 39.312 50.1981 50.1983 48.9196 53.0108C48.4029 54.1491 47.8609 55.2758 47.294 56.39C47.294 56.39 47.2756 56.4449 47.2208 56.5361C47.0427 56.8855 46.8601 57.2326 46.6732 57.5773V57.5953C46.399 58.0889 46.1067 58.5452 45.9606 58.5452C45.851 58.5452 45.65 57.2303 45.9971 55.4402C46.7276 51.6594 48.4629 45.7779 48.4448 45.577C48.4448 45.4673 48.7735 44.4446 47.3124 43.9146C45.8874 43.385 45.3762 44.2616 45.2481 44.2616C45.1204 44.2616 45.0288 44.5723 45.0288 44.5723C45.0288 44.5723 46.6183 37.9602 41.997 37.9602C39.1113 37.9602 35.1292 41.1201 33.1565 43.9694C30.9141 45.1897 28.6735 46.4136 26.4349 47.6409C25.3577 48.2437 24.2433 48.8466 23.2021 49.4126C23.1288 49.3397 23.056 49.2481 22.9827 49.1752C17.3935 43.2025 7.05556 38.983 7.49388 30.9648C7.65839 28.0422 8.66273 20.3707 27.3483 11.0555C42.7275 3.47518 54.9656 5.57551 57.0843 10.2333C60.1161 16.8821 50.5272 29.2295 34.636 31.0192C28.572 31.6953 25.3937 29.3572 24.5903 28.4806C23.7501 27.5671 23.622 27.5123 23.3114 27.6952C22.8002 27.9694 23.1288 28.7912 23.3114 29.2659C23.7865 30.5076 25.7407 32.6996 29.0468 33.7776C31.9693 34.7271 39.0744 35.2571 47.6775 31.9327C57.3033 28.2064 64.8288 17.85 62.6187 9.17412C60.4083 0.370125 45.7961 -2.53399 31.9693 2.37919C23.7501 5.3021 14.8364 9.90465 8.42536 15.8958C0.808621 23.019 -0.397052 29.2111 0.096107 31.805C1.86819 41.0105 14.5626 47.0016 19.6403 51.44C19.3845 51.5861 19.1468 51.7142 18.9462 51.8239C16.4072 53.084 6.72652 58.1433 4.31557 63.4952C1.57597 69.5592 4.75428 73.9068 6.85461 74.4908C13.3754 76.2993 20.0786 73.0481 23.6768 67.6779C27.2751 62.3079 26.8367 55.3305 25.1747 52.1341C25.1563 52.0977 25.1383 52.0609 25.1015 52.0245C25.7592 51.641 26.4349 51.2391 27.0925 50.8556C28.3013 50.1411 29.5254 49.4528 30.764 48.7913C30.1427 50.4902 29.686 52.5176 29.4671 55.4402C29.1929 58.8742 30.5991 63.3307 32.444 65.084C33.2662 65.8517 34.2341 65.8697 34.8554 65.8697C37.0105 65.8697 37.9788 64.0796 39.0564 61.9609C40.3714 59.3674 41.5586 56.3536 41.5586 56.3536C41.5586 56.3536 40.0792 64.4999 44.0977 64.4999C45.5587 64.4999 47.0382 62.6002 47.6959 61.6322V61.6503C47.6959 61.6503 47.7323 61.5954 47.8056 61.4677C47.9517 61.2304 48.043 61.0839 48.043 61.0839V61.0478C48.6274 60.0247 49.9427 57.705 51.897 53.851C54.4176 48.883 56.847 42.6729 56.847 42.6729C56.847 42.6729 57.0663 44.1888 57.8149 46.7094C58.2536 48.1889 59.1662 49.8145 59.8972 51.3852C59.3127 52.2074 58.9473 52.6637 58.9473 52.6637L58.9657 52.6821C58.4905 53.303 57.9794 53.9787 57.413 54.6368C55.4219 57.0109 53.0478 59.7329 52.7188 60.5178C52.3349 61.4493 52.4265 62.1254 53.1575 62.6734C53.6871 63.0753 54.6365 63.1297 55.6048 63.0753C57.3949 62.9472 58.6551 62.5089 59.2759 62.2351C60.2442 61.888 61.3766 61.3581 62.4358 60.5727C64.3904 59.1296 65.5773 57.0657 65.468 54.3445C65.4132 52.8467 64.92 51.3488 64.3172 49.9422C64.5001 49.6868 64.6642 49.431 64.8472 49.1752C67.9338 44.6635 70.3267 39.7135 70.3267 39.7135C70.3267 39.7135 70.5461 41.2294 71.2947 43.7505C71.6601 45.029 72.4091 46.4172 73.0663 47.7686C70.1622 50.1251 68.3721 52.8647 67.7329 54.6548C66.5824 57.9792 67.4771 59.4767 69.1759 59.8237C69.9429 59.9883 71.0389 59.6228 71.8427 59.2757C72.8654 58.9471 74.0711 58.3811 75.2219 57.5405C77.1765 56.0978 79.0575 54.0884 78.9478 51.3672C78.893 50.1251 78.5643 48.901 78.1076 47.7137C80.5734 46.6914 83.7517 46.125 87.8063 46.5997C96.501 47.6225 98.2178 53.0472 97.8888 55.3309C97.5601 57.6137 95.7336 58.8558 95.1312 59.2393C94.5279 59.6232 94.3274 59.7509 94.3822 60.0247C94.4551 60.4266 94.7473 60.4086 95.2589 60.3353C95.9714 60.2076 99.8254 58.4904 99.9895 54.2893C100.264 48.9194 95.1492 43.0564 86.1078 43.1112ZM19.0375 65.7236C16.1514 68.8651 12.1333 70.0524 10.398 69.048C8.53503 67.9701 9.26557 63.3307 12.8089 60.0067C14.9641 57.9792 17.7405 56.0974 19.5855 54.947C20.0054 54.6912 20.6266 54.3261 21.3756 53.8694C21.5033 53.7962 21.5765 53.7597 21.5765 53.7597L22.0148 53.4855C23.3114 58.2346 22.0697 62.4176 19.0375 65.7236ZM40.0427 51.44C39.038 53.8878 36.9377 60.1528 35.6591 59.8057C34.5632 59.5135 33.8871 54.7645 35.4398 50.0702C36.2252 47.7137 37.8872 44.9009 38.8555 43.8053C40.4262 42.0516 42.1615 41.4668 42.5814 42.1797C43.1114 43.1112 40.6636 49.9057 40.0427 51.44ZM57.3765 59.7325C56.9562 59.9518 56.5547 60.0979 56.3718 59.9883C56.2441 59.915 56.5547 59.6228 56.5547 59.6228C56.5547 59.6228 58.7283 57.2851 59.5865 56.2255C60.0801 55.6047 60.6641 54.8741 61.2854 54.0519V54.2893C61.2854 57.0841 58.5818 58.9655 57.3761 59.7325M70.7463 56.6823C70.4356 56.4629 70.4905 55.7324 71.5316 53.4491C71.9335 52.5541 72.883 51.0566 74.509 49.6135C74.6915 50.1979 74.8196 50.7644 74.8012 51.2939C74.7828 54.8193 72.2626 56.1343 70.7463 56.6823Z" fill="#CD6799"/>
</svg>
