<svg width="26" height="25" viewBox="0 0 26 25" fill="none" xmlns="http://www.w3.org/2000/svg">
<path d="M19.357 0L13.19 11.137H25.526L19.357 0ZM19.357 4.127L22.131 9.137H16.584L19.357 4.127ZM6 12.137C2.691 12.137 0 14.828 0 18.137C0 21.446 2.691 24.137 6 24.137C9.309 24.137 12 21.446 12 18.137C12 14.828 9.309 12.137 6 12.137ZM14 13.137V24.137H25V13.137H14ZM6 14.137C8.206 14.137 10 15.931 10 18.137C10 20.343 8.206 22.137 6 22.137C3.794 22.137 2 20.343 2 18.137C2 15.931 3.794 14.137 6 14.137ZM16 15.137H23V22.137H16V15.137Z" fill="#1B1B19"/>
</svg>
