<svg width="100" height="100" viewBox="0 0 100 100" fill="none" xmlns="http://www.w3.org/2000/svg">
<path d="M96.447 10.5186L75.8759 0.622157C74.7125 0.0585068 73.4023 -0.128515 72.1276 0.0871085C70.8529 0.302732 69.6771 0.910278 68.7637 1.82523L29.3622 37.7769L12.191 24.7556C11.4177 24.1644 10.4613 23.8634 9.4888 23.905C8.51627 23.9467 7.58922 24.3285 6.86932 24.9837L1.36954 29.996C0.939673 30.3844 0.59578 30.8585 0.35993 31.3877C0.12408 31.9169 0.00148466 32.4896 1.34014e-05 33.069C-0.00145786 33.6484 0.118227 34.2216 0.351386 34.752C0.584546 35.2824 0.926027 35.7582 1.35391 36.1489L16.2471 49.7389L1.35391 63.329C0.926027 63.7197 0.584546 64.1955 0.351386 64.7259C0.118227 65.2563 -0.00145786 65.8296 1.34014e-05 66.4089C0.00148466 66.9883 0.12408 67.561 0.35993 68.0902C0.59578 68.6194 0.939673 69.0935 1.36954 69.4819L6.86932 74.4942C7.58922 75.1494 8.51627 75.5312 9.4888 75.5729C10.4613 75.6145 11.4177 75.3135 12.191 74.7223L29.3622 61.6854L68.7825 97.6527C69.6926 98.5675 70.8658 99.1752 72.1381 99.3909C73.4104 99.6066 74.7183 99.4195 75.8791 98.8557L96.4689 88.9436C97.5292 88.4343 98.4235 87.6351 99.0484 86.6386C99.6733 85.642 100.003 84.4889 100 83.3126V16.1434C100 13.7498 98.6157 11.553 96.4533 10.5124L96.447 10.5186ZM75.0104 72.4474L45.0959 49.7421L75.0104 27.0367V72.4474Z" fill="#1B1B19"/>
</svg>
